<?xml version="1.0" encoding="UTF-8" standalone="no"?>
<svg
   xmlns:dc="http://purl.org/dc/elements/1.1/"
   xmlns:cc="http://creativecommons.org/ns#"
   xmlns:rdf="http://www.w3.org/1999/02/22-rdf-syntax-ns#"
   xmlns:svg="http://www.w3.org/2000/svg"
   xmlns="http://www.w3.org/2000/svg"
   id="svg2451"
   viewBox="0, 0, 128, 128"
   height="128"
   width="128"
   y="0px"
   x="0px"
   version="1.1">
  <metadata
     id="metadata2455">
    <rdf:RDF>
      <cc:Work
         rdf:about="">
        <dc:format>image/svg+xml</dc:format>
        <dc:type
           rdf:resource="http://purl.org/dc/dcmitype/StillImage" />
        <dc:title></dc:title>
      </cc:Work>
    </rdf:RDF>
  </metadata>
  <g
     transform="matrix(1.2705,0,0,1.2705,-28.882197,-27.900779)"
     id="Background">
    <rect
       style="fill:#000000;fill-opacity:0"
       id="rect2434"
       height="128"
       width="128"
       y="0"
       x="0" />
  </g>
  <g
     id="g2447">
    <g
       style="fill:#ebeded;fill-opacity:1"
       id="g3681"
       transform="matrix(0.2025,0,0,0.2025,11.313137,17.859557)" />
    <g
       style="fill:#ebeded;fill-opacity:1"
       id="g3683"
       transform="matrix(0.2025,0,0,0.2025,11.313137,17.859557)" />
    <g
       style="fill:#ebeded;fill-opacity:1"
       id="g3685"
       transform="matrix(0.2025,0,0,0.2025,11.313137,17.859557)" />
    <g
       style="fill:#ebeded;fill-opacity:1"
       id="g3687"
       transform="matrix(0.2025,0,0,0.2025,11.313137,17.859557)" />
    <g
       style="fill:#ebeded;fill-opacity:1"
       id="g3689"
       transform="matrix(0.2025,0,0,0.2025,11.313137,17.859557)" />
    <g
       style="fill:#ebeded;fill-opacity:1"
       id="g3691"
       transform="matrix(0.2025,0,0,0.2025,11.313137,17.859557)" />
    <g
       style="fill:#ebeded;fill-opacity:1"
       id="g3693"
       transform="matrix(0.2025,0,0,0.2025,11.313137,17.859557)" />
    <g
       style="fill:#ebeded;fill-opacity:1"
       id="g3695"
       transform="matrix(0.2025,0,0,0.2025,11.313137,17.859557)" />
    <g
       style="fill:#ebeded;fill-opacity:1"
       id="g3697"
       transform="matrix(0.2025,0,0,0.2025,11.313137,17.859557)" />
    <g
       style="fill:#ebeded;fill-opacity:1"
       id="g3699"
       transform="matrix(0.2025,0,0,0.2025,11.313137,17.859557)" />
    <g
       style="fill:#ebeded;fill-opacity:1"
       id="g3701"
       transform="matrix(0.2025,0,0,0.2025,11.313137,17.859557)" />
    <g
       style="fill:#ebeded;fill-opacity:1"
       id="g3703"
       transform="matrix(0.2025,0,0,0.2025,11.313137,17.859557)" />
    <g
       style="fill:#ebeded;fill-opacity:1"
       id="g3705"
       transform="matrix(0.2025,0,0,0.2025,11.313137,17.859557)" />
    <g
       style="fill:#ebeded;fill-opacity:1"
       id="g3707"
       transform="matrix(0.2025,0,0,0.2025,11.313137,17.859557)" />
    <g
       style="fill:#ebeded;fill-opacity:1"
       id="g3709"
       transform="matrix(0.2025,0,0,0.2025,11.313137,17.859557)" />
    <g
       style="fill:#737370;fill-opacity:1;stroke:none"
       id="g599"
       transform="matrix(0.51884044,0,0,0.51884044,-65.847195,-54.488427)">
      <polygon
         transform="matrix(0.1356032,0.2932032,-0.00416466,0.97115047,323.55068,-54.480993)"
         id="polygon597"
         points="184.642,143.629 340.526,71.579 340.526,274.219 184.642,357.35 "
         style="fill:#737370;fill-opacity:1;stroke:none" />
      <rect
         y="139.58749"
         x="133.37123"
         height="207.25262"
         width="207.25262"
         id="rect1581"
         style="fill:#737370;fill-opacity:1;stroke:none;stroke-width:2.33212352;stroke-opacity:1" />
      <polygon
         transform="matrix(-0.31823348,-0.13560319,-0.97038174,0.00416466,540.83715,157.00748)"
         id="polygon597-3"
         points="340.526,274.219 184.642,357.35 184.642,143.629 340.526,71.579 "
         style="fill:#737370;fill-opacity:1;stroke:none" />
    </g>
    <g
       id="g601"
       transform="matrix(0.3375,0,0,0.3375,136.96358,-2.8188527)" />
    <g
       id="g603"
       transform="matrix(0.3375,0,0,0.3375,136.96358,-2.8188527)" />
    <g
       id="g605"
       transform="matrix(0.3375,0,0,0.3375,136.96358,-2.8188527)" />
    <g
       id="g607"
       transform="matrix(0.3375,0,0,0.3375,136.96358,-2.8188527)" />
    <g
       id="g609"
       transform="matrix(0.3375,0,0,0.3375,136.96358,-2.8188527)" />
    <g
       id="g611"
       transform="matrix(0.3375,0,0,0.3375,136.96358,-2.8188527)" />
    <g
       id="g613"
       transform="matrix(0.3375,0,0,0.3375,136.96358,-2.8188527)" />
    <g
       id="g615"
       transform="matrix(0.3375,0,0,0.3375,136.96358,-2.8188527)" />
    <g
       id="g617"
       transform="matrix(0.3375,0,0,0.3375,136.96358,-2.8188527)" />
    <g
       id="g619"
       transform="matrix(0.3375,0,0,0.3375,136.96358,-2.8188527)" />
    <g
       id="g621"
       transform="matrix(0.3375,0,0,0.3375,136.96358,-2.8188527)" />
    <g
       id="g623"
       transform="matrix(0.3375,0,0,0.3375,136.96358,-2.8188527)" />
    <g
       id="g625"
       transform="matrix(0.3375,0,0,0.3375,136.96358,-2.8188527)" />
    <g
       id="g627"
       transform="matrix(0.3375,0,0,0.3375,136.96358,-2.8188527)" />
    <g
       id="g629"
       transform="matrix(0.3375,0,0,0.3375,136.96358,-2.8188527)" />
    <g
       style="fill:#ebeded;fill-opacity:1"
       id="g13195"
       transform="matrix(0.195,0,0,0.195,7.2732722,22.408432)">
      <g
         style="fill:#ebeded;fill-opacity:1"
         id="g13197">
        <path
           style="fill:#ebeded;fill-opacity:1"
           id="path13199"
           d="m 376,30 -210,0 c -20.678,0 -37.5,16.822 -37.5,37.5 l 0,398.199 c -8.713,-3.11 -14.984,-11.447 -15,-21.199 l 0,-407 C 113.52,25.12 123.62,15.02 136,15 l 210,0 c 4.33,0 8.54,1.24 12.16,3.57 1.21,0.78 2.62,1.19 4.05,1.19 2.57,0 4.93,-1.29 6.32,-3.44 2.239,-3.48 1.229,-8.13 -2.25,-10.37 C 360.24,2.06 353.229,0 346.02,0 L 136,0 C 125.98,0 116.56,3.9 109.48,10.98 102.4,18.06 98.5,27.48 98.5,37.5 l 0,407 c 0,10.02 3.9,19.43 10.98,26.52 5.435,5.434 12.248,8.995 19.653,10.357 C 132.371,498.781 147.671,512 166,512 l 210,0 c 20.678,0 37.5,-16.822 37.5,-37.5 l 0,-407 C 413.5,46.822 396.678,30 376,30 Z m 22.5,444.5 c 0,12.407 -10.094,22.5 -22.5,22.5 l -210,0 c -12.407,0 -22.5,-10.093 -22.5,-22.5 l 0,-407 C 143.5,55.093 153.593,45 166,45 l 210,0 c 12.406,0 22.5,10.093 22.5,22.5 l 0,407 z" />
      </g>
    </g>
    <g
       style="fill:#ebeded;fill-opacity:1"
       id="g13201"
       transform="matrix(0.195,0,0,0.195,7.2732722,22.408432)">
      <g
         style="fill:#ebeded;fill-opacity:1"
         id="g13203">
        <path
           style="fill:#ebeded;fill-opacity:1"
           id="path13205"
           d="M 210.35,120.253 193.517,75.366 c -1.377,-3.671 -5.429,-5.789 -9.448,-4.475 -2.177,0.711 -3.849,2.479 -4.653,4.623 l -16.764,44.705 c -1.233,3.289 -0.155,7.101 2.788,9.019 4.197,2.735 9.551,0.8 11.203,-3.604 l 0.987,-2.634 17.73,0 0.988,2.633 c 1.129,3.011 3.987,4.869 7.023,4.869 1.58,0 3.209,-0.503 4.663,-1.607 2.62,-1.988 3.47,-5.563 2.316,-8.642 z M 183.255,108 l 3.24,-8.64 3.24,8.64 -6.48,0 z" />
      </g>
    </g>
    <g
       style="fill:#ebeded;fill-opacity:1"
       id="g13207"
       transform="matrix(0.195,0,0,0.195,7.2732722,22.408432)">
      <g
         style="fill:#ebeded;fill-opacity:1"
         id="g13209">
        <path
           style="fill:#ebeded;fill-opacity:1"
           id="path13211"
           d="m 378.317,461.14 -16.714,-44.574 c -0.816,-2.177 -2.509,-3.984 -4.724,-4.692 -4.002,-1.279 -8.025,0.836 -9.396,4.492 l -16.776,44.735 c -1.347,3.591 0.029,7.771 3.432,9.538 4.078,2.118 8.951,0.16 10.513,-4.007 l 0.988,-2.632 17.73,0 0.987,2.633 c 1.129,3.011 3.987,4.869 7.023,4.869 1.362,0 2.76,-0.374 4.052,-1.184 3.039,-1.906 4.145,-5.82 2.885,-9.178 z M 351.265,449 l 3.24,-8.64 3.24,8.64 -6.48,0 z" />
      </g>
    </g>
    <g
       style="fill:#ebeded;fill-opacity:1"
       id="g13213"
       transform="matrix(0.195,0,0,0.195,7.2732722,22.408432)">
      <g
         style="fill:#ebeded;fill-opacity:1"
         id="g13215">
        <path
           style="fill:#ebeded;fill-opacity:1"
           id="path13217"
           d="m 364.496,238.094 c -10e-4,-0.001 -10e-4,-0.002 -0.002,-0.003 -5.107,-7.051 -59.436,-62.092 -59.862,-62.479 -10.037,-9.093 -22.564,-12.79 -29.248,-12.929 l 0.008,-0.073 c -15.425,-1.495 -30.523,4.086 -41.441,15.321 l -50.955,52.437 c -23.612,24.298 -26.666,62.889 -7.104,89.764 8.982,12.345 21.961,21.254 36.546,25.089 8.542,2.245 17.42,2.707 26.052,1.433 -2.277,2.884 -10.437,11.278 -4.797,22.915 3.118,6.434 9.497,10.431 16.647,10.431 l 40.32,0 c 7.15,0 13.529,-3.997 16.647,-10.432 5.473,-11.294 -1.975,-19.34 -4.772,-22.883 21.222,3.161 43.094,-4.395 58.133,-21.081 21.625,-23.886 23.234,-60.689 3.828,-87.51 z m -14.958,77.455 c -14.807,16.427 -38.144,21.402 -58.068,12.376 -4.009,-1.814 -8.699,-0.663 -11.408,2.8 -2.708,3.459 -2.695,8.284 0.027,11.732 l 13.319,16.875 c 1.226,1.553 0.689,3.101 0.401,3.694 -0.287,0.593 -1.17,1.974 -3.149,1.974 l -40.32,0 c -1.979,0 -2.862,-1.38 -3.149,-1.974 -0.288,-0.593 -0.824,-2.141 0.402,-3.695 l 13.311,-16.865 c 2.725,-3.453 2.731,-8.284 0.018,-11.75 -1.849,-2.36 -4.616,-3.643 -7.457,-3.643 -1.321,0 -2.657,0.277 -3.924,0.853 -21.527,9.773 -47.401,2.784 -61.52,-16.621 -15.322,-21.051 -12.857,-51.353 5.734,-70.484 l 50.955,-52.436 c 7.723,-7.947 18.386,-11.899 29.232,-10.845 0.024,0.002 0.049,0.004 0.073,0.007 8.017,0.916 14.784,3.989 20.471,9.113 3.313,3.236 54.127,55.103 57.861,60.23 15.274,21.114 14.099,49.983 -2.809,68.659 z" />
      </g>
    </g>
    <g
       id="g13219"
       transform="matrix(0.195,0,0,0.195,-102.80264,18.368949)" />
    <g
       id="g13221"
       transform="matrix(0.195,0,0,0.195,-102.80264,18.368949)" />
    <g
       id="g13223"
       transform="matrix(0.195,0,0,0.195,-102.80264,18.368949)" />
    <g
       id="g13225"
       transform="matrix(0.195,0,0,0.195,-102.80264,18.368949)" />
    <g
       id="g13227"
       transform="matrix(0.195,0,0,0.195,-102.80264,18.368949)" />
    <g
       id="g13229"
       transform="matrix(0.195,0,0,0.195,-102.80264,18.368949)" />
    <g
       id="g13231"
       transform="matrix(0.195,0,0,0.195,-102.80264,18.368949)" />
    <g
       id="g13233"
       transform="matrix(0.195,0,0,0.195,-102.80264,18.368949)" />
    <g
       id="g13235"
       transform="matrix(0.195,0,0,0.195,-102.80264,18.368949)" />
    <g
       id="g13237"
       transform="matrix(0.195,0,0,0.195,-102.80264,18.368949)" />
    <g
       id="g13239"
       transform="matrix(0.195,0,0,0.195,-102.80264,18.368949)" />
    <g
       id="g13241"
       transform="matrix(0.195,0,0,0.195,-102.80264,18.368949)" />
    <g
       id="g13243"
       transform="matrix(0.195,0,0,0.195,-102.80264,18.368949)" />
    <g
       id="g13245"
       transform="matrix(0.195,0,0,0.195,-102.80264,18.368949)" />
    <g
       id="g13247"
       transform="matrix(0.195,0,0,0.195,-102.80264,18.368949)" />
  </g>
  <defs
     id="defs2449" />
</svg>
